<svg width="67" height="40" viewBox="0 0 67 40" fill="none" xmlns="http://www.w3.org/2000/svg">
<path fill-rule="evenodd" clip-rule="evenodd" d="M62.8556 40H4.14444C1.86501 40 0 38.1193 0 35.8206V4.17936C0 1.88072 1.86501 0 4.14444 0H62.8556C65.135 0 67 1.88072 67 4.17936V35.8206C67 38.1193 65.135 40 62.8556 40Z" fill="#055E7C"/>
<path d="M25.0928 26.3218H22.3613L21.4971 23.6919H16.5791L15.748 26.3218H13L17.5137 13.5376H20.5254L25.0928 26.3218ZM53.835 26.3218H51.0928L50.2295 23.6919H45.3105L44.4795 26.3218H41.7314L46.2393 13.5376H49.2578L53.835 26.3218ZM34.7295 13.5376C37.3586 13.5376 38.7139 14.6921 38.7139 16.772C38.7138 18.0513 38.2219 18.9228 37.1963 19.4019C38.5188 19.9354 39.1561 20.9312 39.1562 22.4282C39.1562 24.862 37.5314 26.3159 34.5352 26.3159H28.7529V13.5376H34.7295ZM31.2578 24.0132H34.3408C35.7714 24.0132 36.4463 23.5285 36.4463 22.3579C36.4463 21.1111 35.771 20.6646 34.3242 20.6646H31.2578V24.0132ZM17.2598 21.5415H20.7852L19.0244 16.1021L17.2598 21.5415ZM46.002 21.5415H49.5273L47.7676 16.1021L46.002 21.5415ZM31.2578 18.481H34.2383C35.4852 18.481 36.0897 18.073 36.0898 17.0933C36.0898 16.1133 35.4746 15.7642 34.2168 15.7642H31.2578V18.481Z" fill="white"/>
<path d="M57.8365 11H55.3646V16.0799H57.8365V11Z" fill="#EB2427"/>
</svg>
